<svg height="448pt" viewBox="0 0 448 448" width="448pt" xmlns="http://www.w3.org/2000/svg"><path d="m192 416c0 17.671875 14.328125 32 32 32s32-14.328125 32-32c0-12.296875-17.601562-43.414062-32-65.601562-14.398438 22.1875-32 53.304687-32 65.601562zm0 0"/><path d="m96 168h16v144h-16zm0 0"/><path d="m336 168h16v144h-16zm0 0"/><path d="m0 184h48v112h-48zm0 0"/><path d="m64 152h16v176h-16zm0 0"/><path d="m368 152h16v176h-16zm0 0"/><path d="m400 184h48v112h-48zm0 0"/><path d="m280 160v-32h-112v32c0 13.253906-10.746094 24-24 24h-16v112h72.046875l-.046875-62.128906 51.753906 62.128906h68.246094v-112h-16c-13.253906 0-24-10.746094-24-24zm0 0"/><path d="m168 0h112v48h-112zm0 0"/><path d="m152 96h144v16h-144zm0 0"/><path d="m136 64h176v16h-176zm0 0"/></svg>