<svg height="512pt" viewBox="-4 0 512 512" width="512pt" xmlns="http://www.w3.org/2000/svg"><path d="m485.472656 7.792969c-.519531-4.449219-4.289062-7.792969-8.765625-7.792969h-123.585937c-4.476563 0-8.246094 3.34375-8.765625 7.792969l-17.65625 150.070312c-.289063 2.507813.496093 5.015625 2.171875 6.894531 1.667968 1.878907 4.070312 2.957032 6.59375 2.957032h26.484375v17.65625c0 4.871094 3.953125 8.828125 8.828125 8.828125 4.871094 0 8.828125-3.957031 8.828125-8.828125v-17.65625h8.824219v158.898437h-44.136719c-19.472657 0-35.308594 15.835938-35.308594 35.308594v17.65625h70.671875c1.695312 0 3.347656.195313 4.960938.503906.523437.09375 1.007812.261719 1.511718.394531.765625.195313 1.5625.335938 2.300782.601563v-19.148437c0-3.019532.335937-5.949219.832031-8.828126h18.078125c-.730469 2.84375-1.253906 5.765626-1.253906 8.828126v150.070312h70.621093v-150.070312c0-19.472657-15.835937-35.308594-35.308593-35.308594v-158.898438h52.964843c2.523438 0 4.925781-1.074218 6.601563-2.957031 1.667968-1.878906 2.464844-4.394531 2.171875-6.894531zm-79.386718 45.171875c0-4.871094 3.957031-8.828125 8.828124-8.828125 4.871094 0 8.828126 3.957031 8.828126 8.828125v52.964844c0 4.875-3.957032 8.828124-8.828126 8.828124-4.871093 0-8.828124-3.953124-8.828124-8.828124zm-26.480469 44.136718c-4.875 0-8.828125-3.953124-8.828125-8.824218v-17.65625c0-4.875 3.953125-8.828125 8.828125-8.828125 4.871093 0 8.824219 3.953125 8.824219 8.828125v17.65625c0 4.871094-3.953126 8.824218-8.824219 8.824218zm44.136719 229.519532h-17.65625v-158.898438h17.65625zm35.308593-238.34375c0 4.871094-3.953125 8.824218-8.828125 8.824218-4.871094 0-8.824218-3.953124-8.824218-8.824218v-17.65625c0-4.875 3.953124-8.828125 8.824218-8.828125 4.875 0 8.828125 3.953125 8.828125 8.828125zm0 0"/><path d="m220.707031 381.078125c.742188-.265625 1.535157-.40625 2.304688-.601563.503906-.132812.988281-.289062 1.507812-.394531 1.617188-.308593 3.257813-.503906 4.960938-.503906h61.847656v-17.65625c0-3.035156.316406-5.992187.804687-8.890625.058594-.351562.09375-.703125.167969-1.050781.519531-2.734375 1.277344-5.375 2.207031-7.941407.15625-.441406.308594-.875.476563-1.308593.976563-2.496094 2.132813-4.90625 3.457031-7.210938.230469-.390625.46875-.769531.699219-1.148437 1.414063-2.304688 2.964844-4.511719 4.703125-6.578125.195312-.226563.40625-.441407.609375-.667969 1.835937-2.101562 3.816406-4.089844 5.960937-5.871094.042969-.035156.078126-.078125.121094-.113281 2.15625-1.785156 4.476563-3.355469 6.90625-4.796875.308594-.183594.597656-.378906.917969-.554688 2.347656-1.324218 4.800781-2.445312 7.351563-3.398437.433593-.167969.867187-.328125 1.308593-.476563 2.550781-.882812 5.179688-1.582031 7.898438-2.074218.1875-.035156.363281-.113282.546875-.140625v-80.183594c0-10.460937-1.480469-20.945313-4.414063-31.160156-5.066406-17.671875-14.351562-34.066407-26.859375-47.394531-.125-.105469-1.105468-1.042969-1.21875-1.164063-21.292968-21.9375-52.046875-35.03125-82.265625-35.03125h-44.136719c-30.773437 0-61.804687 13.4375-83.175781 35.929687-.457031.476563-.890625.980469-1.332031 1.476563-2.019531 2.214844-3.988281 4.484375-5.824219 6.839844-.292969.371093-.558593.75-.839843 1.121093-12.851563 16.921876-20.929688 37.367188-23.023438 58.4375-.34375 3.609376-.554688 7.265626-.554688 10.964844v79.449219h105.929688c29.210938 0 52.964844 23.753906 52.964844 52.964844v19.128906zm52.964844-151.5625c0 4.875-3.953125 8.828125-8.828125 8.828125h-26.480469c-4.875 0-8.828125-3.953125-8.828125-8.828125 0-4.871094 3.953125-8.824219 8.828125-8.824219h26.480469c4.875 0 8.828125 3.953125 8.828125 8.824219zm-105.929687-52.964844h70.621093c4.871094 0 8.828125 3.957031 8.828125 8.828125 0 4.875-3.957031 8.828125-8.828125 8.828125h-70.621093c-4.875 0-8.828126-3.953125-8.828126-8.828125 0-4.871094 3.953126-8.828125 8.828126-8.828125zm-26.484376 44.140625h61.792969c4.875 0 8.828125 3.953125 8.828125 8.824219 0 4.875-3.953125 8.828125-8.828125 8.828125h-61.792969c-4.871093 0-8.828124-3.953125-8.828124-8.828125 0-4.871094 3.957031-8.824219 8.828124-8.824219zm17.65625 61.792969h-17.65625c-4.871093 0-8.828124-3.957031-8.828124-8.828125 0-4.875 3.957031-8.828125 8.828124-8.828125h17.65625c4.871094 0 8.828126 3.953125 8.828126 8.828125 0 4.871094-3.945313 8.828125-8.828126 8.828125zm35.308594 0c-4.871094 0-8.824218-3.957031-8.824218-8.828125 0-4.875 3.953124-8.828125 8.824218-8.828125h70.621094c4.875 0 8.828125 3.953125 8.828125 8.828125 0 4.871094-3.953125 8.828125-8.828125 8.828125zm0 0"/><path d="m35.328125 326.621094c-19.472656 0-35.3085938 15.835937-35.3085938 35.308594v150.070312h114.7578128v-150.070312c0-3.195313.335937-6.308594.882812-9.347657.042969-.273437.070313-.546875.121094-.8125.558594-2.886719 1.394531-5.65625 2.402344-8.359375.140625-.371094.265625-.75.40625-1.113281 1.042968-2.601563 2.296875-5.082031 3.726562-7.464844.226563-.390625.457032-.769531.695313-1.140625 1.476562-2.320312 3.117187-4.511718 4.917969-6.578125.140624-.15625.230468-.34375.371093-.492187zm0 0"/><path d="m7.078125 317.203125c.382813-.238281.761719-.46875 1.148437-.699219 2.382813-1.421875 4.863282-2.683594 7.460938-3.726562.371094-.148438.742188-.273438 1.121094-.40625 2.691406-1.011719 5.472656-1.84375 8.351562-2.398438.261719-.054687.546875-.082031.8125-.125 3.042969-.546875 6.152344-.875 9.347656-.875h8.828126v-79.445312c0-3.929688.226562-7.796875.5625-11.636719.054687-.582031.117187-1.164063.1875-1.746094 2.992187-29.660156 15.792968-56.4375 35.125-77.058593.007812-.007813.015624-.023438.023437-.035157.011719-.007812.027344-.023437.035156-.035156 8.863281-9.433594 19.042969-17.628906 30.324219-24.160156-61.261719 2.304687-110.40625 52.859375-110.40625 114.679687v92.972656c.148438-.132812.335938-.230468.484375-.363281 2.074219-1.828125 4.273437-3.46875 6.59375-4.941406zm0 0"/><path d="m167.742188 326.621094c-19.472657 0-35.3125 15.835937-35.3125 35.308594v150.070312h70.621093v-150.070312c0-19.472657-15.84375-35.308594-35.308593-35.308594zm0 0"/><path d="m384.617188 449.703125c-1.605469.308594-3.257813.503906-4.960938.503906h-150.183594c-1.695312 0-3.34375-.195312-4.960937-.503906-.519531-.097656-1.007813-.265625-1.507813-.398437-.769531-.191407-1.5625-.332032-2.304687-.597657v63.292969h167.722656v-63.285156c-.742187.265625-1.535156.40625-2.304687.601562-.5.121094-.988282.289063-1.5.386719zm0 0"/><path d="m379.65625 397.242188h-150.175781c-4.835938 0-8.773438 3.9375-8.773438 8.773437v17.769531c0 4.839844 3.9375 8.777344 8.773438 8.777344h150.183593c4.839844 0 8.777344-3.9375 8.777344-8.777344v-17.769531c-.011718-4.835937-3.945312-8.773437-8.785156-8.773437zm0 0"/></svg>