<svg width="23" height="18" fill="none" xmlns="http://www.w3.org/2000/svg"><path d="M4.181 17.91v-1.19c0-.457-.276-.755-.75-.755a.776.776 0 00-.67.337c-.138-.218-.335-.337-.631-.337a.636.636 0 00-.552.278v-.239h-.414v1.907h.414v-1.053c0-.337.177-.496.453-.496s.415.179.415.496v1.053h.414v-1.053c0-.337.197-.496.453-.496.276 0 .415.179.415.496v1.053h.453zm6.134-1.906h-.67v-.575H9.23v.575h-.374v.378h.374v.873c0 .437.178.695.651.695.178 0 .375-.06.513-.139l-.118-.357a.646.646 0 01-.355.1c-.198 0-.277-.12-.277-.319v-.853h.671v-.378zm3.51-.04a.555.555 0 00-.492.279v-.239h-.415v1.907h.415v-1.073c0-.317.138-.496.394-.496.079 0 .178.02.256.04l.119-.397c-.08-.02-.197-.02-.276-.02zm-5.305.2c-.197-.14-.473-.2-.769-.2-.473 0-.789.239-.789.616 0 .318.237.497.651.556l.197.02c.217.04.335.1.335.199 0 .139-.157.238-.433.238-.277 0-.493-.1-.632-.199l-.197.318c.217.159.513.238.809.238.552 0 .868-.258.868-.615 0-.338-.257-.517-.651-.576l-.197-.02c-.178-.02-.316-.06-.316-.179 0-.139.138-.218.355-.218.237 0 .473.1.592.159l.177-.338zm11.006-.2a.555.555 0 00-.494.279v-.239h-.414v1.907h.415v-1.073c0-.317.138-.496.394-.496.079 0 .178.02.256.04l.119-.397c-.08-.02-.197-.02-.276-.02zm-5.286.993c0 .576.394.993 1.006.993.276 0 .473-.06.67-.218l-.197-.338a.794.794 0 01-.493.18c-.335 0-.572-.24-.572-.617 0-.357.237-.595.572-.615.177 0 .335.06.493.179l.197-.338c-.197-.159-.394-.218-.67-.218-.612 0-1.006.417-1.006.992zm3.826 0v-.953h-.414v.239a.71.71 0 00-.592-.278c-.532 0-.946.417-.946.992 0 .576.414.993.946.993.276 0 .474-.099.592-.278v.239h.414v-.954zm-1.518 0c0-.337.216-.615.571-.615.336 0 .572.258.572.616 0 .337-.236.615-.572.615-.355-.02-.572-.278-.572-.616zm-4.951-.992c-.552 0-.947.397-.947.992 0 .596.395.993.967.993.276 0 .552-.08.769-.258l-.197-.298a.939.939 0 01-.553.199c-.256 0-.512-.12-.571-.457h1.4v-.159c.02-.615-.335-1.012-.868-1.012zm0 .357c.256 0 .434.159.473.457h-.986c.04-.258.217-.457.513-.457zm10.276.636V15.25h-.415v.993a.71.71 0 00-.591-.278c-.533 0-.947.417-.947.992 0 .576.414.993.947.993.276 0 .473-.099.591-.278v.239h.415v-.954zm-1.519 0c0-.338.217-.616.572-.616.335 0 .572.258.572.616 0 .337-.237.615-.572.615-.355-.02-.572-.278-.572-.616zm-13.846 0v-.954h-.414v.239a.71.71 0 00-.591-.278c-.533 0-.947.417-.947.992 0 .576.414.993.947.993.276 0 .473-.099.591-.278v.239h.414v-.954zm-1.538 0c0-.338.217-.616.572-.616.335 0 .572.258.572.616 0 .337-.237.615-.572.615-.355-.02-.572-.278-.572-.616z" fill="#000"/><path d="M14.595 1.529H8.382v11.239h6.213V1.528z" fill="#FF5F00"/><path d="M8.777 7.148a7.185 7.185 0 012.702-5.619A7.027 7.027 0 007.1 0C3.175 0 0 3.197 0 7.148c0 3.952 3.175 7.149 7.1 7.149a7.027 7.027 0 004.379-1.53 7.155 7.155 0 01-2.702-5.619z" fill="#EB001B"/><path d="M22.977 7.148c0 3.952-3.175 7.149-7.1 7.149a7.027 7.027 0 01-4.379-1.53 7.125 7.125 0 002.703-5.619 7.185 7.185 0 00-2.703-5.619A7.027 7.027 0 0115.877 0c3.925 0 7.1 3.217 7.1 7.148z" fill="#F79E1B"/></svg>