<svg width="37" height="12" fill="none" xmlns="http://www.w3.org/2000/svg"><g clip-path="url(#a)"><path d="M16.031 11.825h-2.994L14.907.209h3l-1.876 11.616zM26.91.499a7.386 7.386 0 00-2.692-.492c-2.96 0-5.045 1.584-5.059 3.842 0 1.666 1.494 2.596 2.624 3.149 1.13.553 1.554.937 1.554 1.45-.013.774-.942 1.145-1.81 1.145a5.956 5.956 0 01-2.812-.62l-.396-.189-.418 2.61a9.103 9.103 0 003.364.62c3.142 0 5.194-1.558 5.214-3.965 0-1.348-.787-2.332-2.516-3.161-1.05-.533-1.689-.89-1.689-1.436 0-.546.545-.998 1.729-.998a5.083 5.083 0 012.233.398l.27.121.403-2.474zm3.975 7.213l1.197-3.25s.25-.673.397-1.112l.209.998s.565 2.778.672 3.371l-2.475-.007zm3.7-7.503H32.29a1.477 1.477 0 00-1.568.964L26.236 11.83h3.142l.632-1.739h3.848c.088.404.357 1.74.357 1.74H37L34.585.208zm-24.05 0L7.595 8.13l-.323-1.604a8.887 8.887 0 00-4.137-4.868l2.69 10.16h3.17L13.703.216h-3.169V.209z" fill="#00579F"/><path d="M4.87.209H.048L0 .445c3.76.964 6.25 3.29 7.279 6.067l-1.05-5.325A1.24 1.24 0 004.884.209h-.013z" fill="#FAA61A"/></g><defs><clipPath id="a"><path fill="#fff" d="M0 0h37v12H0z"/></clipPath></defs></svg>